<svg width="200" height="174" viewBox="0 0 200 174" fill="none" xmlns="http://www.w3.org/2000/svg">
<mask id="path-1-inside-1_89_264" fill="white">
<path fill-rule="evenodd" clip-rule="evenodd" d="M148 50C148 22.3858 125.614 0 98 0C70.3858 0 48 22.3858 48 50L148 50Z"/>
</mask>
<path d="M148 50V62H160V50H148ZM48 50H36V62H48V50ZM98 12C118.987 12 136 29.0132 136 50H160C160 15.7583 132.242 -12 98 -12L98 12ZM60 50C60 29.0132 77.0132 12 98 12L98 -12C63.7583 -12 36 15.7583 36 50L60 50ZM48 62L148 62V38L48 38V62Z" fill="#F1773D" mask="url(#path-1-inside-1_89_264)"/>
<path fill-rule="evenodd" clip-rule="evenodd" d="M0 78C0 55.9086 17.9086 38 40 38H160C182.091 38 200 55.9086 200 78V105H176.996C176.729 87.2813 162.282 73 144.5 73C126.718 73 112.271 87.2813 112.004 105H87.9962C87.729 87.2813 73.2823 73 55.5 73C37.7177 73 23.271 87.2813 23.0038 105H0V78Z" fill="#F1773D"/>
<circle cx="56" cy="105" r="18" fill="#F1773D"/>
<circle cx="145" cy="105" r="18" fill="#F1773D"/>
<path d="M57 141.351C79.3196 179.48 124.733 177.043 145 141" stroke="#F1773D" stroke-width="10" stroke-linecap="square"/>
<path d="M87.7344 65.3203L86.8262 60.457H88.0273C88.2031 57.6055 89.6289 56.1797 92.3047 56.1797C93.9062 56.1797 95.0684 56.6387 95.791 57.5566C96.5137 58.4746 96.875 59.959 96.875 62.0098H93.7988C93.7988 60.877 93.6279 60.0615 93.2861 59.5635C92.9541 59.0654 92.4121 58.8164 91.6602 58.8164C90.3418 58.8164 89.3555 59.3828 88.7012 60.5156C88.0566 61.6387 87.7344 63.2402 87.7344 65.3203ZM81.1719 72V69.2754H91.543V72H81.1719ZM84.6289 72V56.4727H87.1484L87.7344 60.9258V72H84.6289ZM81.7578 59.1973V56.4727H86.9434L87.2363 59.1973H81.7578Z" fill="white"/>
<path d="M98.2617 72V57.3516H101.367V72H98.2617ZM92.3438 72V69.2754H98.5547V72H92.3438ZM101.074 72V69.2754H106.143V72H101.074ZM93.2227 59.1973V56.4727H101.367V59.1973H93.2227ZM99.7119 54.0117C99.1162 54.0117 98.6035 53.8018 98.1738 53.3818C97.7539 52.9521 97.5439 52.4395 97.5439 51.8438C97.5439 51.2383 97.7539 50.7256 98.1738 50.3057C98.6035 49.8857 99.1162 49.6758 99.7119 49.6758C100.317 49.6758 100.83 49.8857 101.25 50.3057C101.67 50.7256 101.88 51.2383 101.88 51.8438C101.88 52.4395 101.67 52.9521 101.25 53.3818C100.83 53.8018 100.317 54.0117 99.7119 54.0117Z" fill="white"/>
<path d="M103.666 79.002L103.52 76.1602L108.5 76.0137C110.072 75.9648 111.215 75.5303 111.928 74.71C112.641 73.8896 113.002 72.6836 113.012 71.0918V59.7539L113.305 56.4727H116.117V70.623C116.117 73.3867 115.487 75.4277 114.228 76.7461C112.968 78.0645 110.961 78.7676 108.207 78.8555L103.666 79.002ZM108.603 72.293C106.571 72.293 105.028 71.624 103.974 70.2861C102.929 68.9482 102.406 66.9805 102.406 64.3828C102.406 61.6875 102.929 59.6465 103.974 58.2598C105.028 56.873 106.571 56.1797 108.603 56.1797C109.813 56.1797 110.795 56.4531 111.547 57C112.299 57.5469 112.738 58.3086 112.865 59.2852H114.066L113.012 63.709C113.012 62.1074 112.694 60.8916 112.06 60.0615C111.435 59.2314 110.512 58.8164 109.291 58.8164C108.041 58.8164 107.094 59.2852 106.449 60.2227C105.805 61.1602 105.482 62.5469 105.482 64.3828C105.482 66.1211 105.805 67.4346 106.449 68.3232C107.094 69.2119 108.041 69.6562 109.291 69.6562C110.512 69.6562 111.435 69.2412 112.06 68.4111C112.694 67.5811 113.012 66.3652 113.012 64.7637L114.066 69.1875H112.719C112.621 70.1641 112.206 70.9258 111.474 71.4727C110.751 72.0195 109.794 72.293 108.603 72.293Z" fill="white"/>
</svg>
