<svg xmlns="http://www.w3.org/2000/svg" viewBox="0 0 500 500"><g id="freepik--background-simple--inject-837"><path d="M125.11,143.34c-19.59,21.45-37.17,50.21-37.52,83.38-.41,37.49,21.39,69.63,45.76,90,37.27,31.15,82.56,43.66,127,43.43,36.06-.18,73.29-9,102.84-35.71s49.72-73.93,43.49-119.8c-4.25-31.29-20-58.43-39.08-78.41-28.71-30-61.73-51.63-98.84-51.23-33.55.36-67,10.58-97.2,29.45A223.35,223.35,0,0,0,125.11,143.34Z" style="fill:#F1773D"></path><path d="M125.11,143.34c-19.59,21.45-37.17,50.21-37.52,83.38-.41,37.49,21.39,69.63,45.76,90,37.27,31.15,82.56,43.66,127,43.43,36.06-.18,73.29-9,102.84-35.71s49.72-73.93,43.49-119.8c-4.25-31.29-20-58.43-39.08-78.41-28.71-30-61.73-51.63-98.84-51.23-33.55.36-67,10.58-97.2,29.45A223.35,223.35,0,0,0,125.11,143.34Z" style="fill:#fff;opacity:0.9"></path></g><g id="freepik--Shadow--inject-837"><ellipse id="freepik--path--inject-837" cx="250" cy="415.69" rx="193.89" ry="11.32" style="fill:#f5f5f5"></ellipse></g><g id="freepik--Cushion--inject-837"><path d="M304.44,403v9.55c0,5.22-27.11,9.45-60.55,9.45s-60.56-4.23-60.56-9.45V403c0,5.21,27.11,9.44,60.56,9.44S304.44,408.25,304.44,403Z" style="fill:#263238"></path><path d="M304.44,403c0,5.21-27.11,9.44-60.55,9.44s-60.56-4.23-60.56-9.44,27.11-9.45,60.56-9.45S304.44,397.82,304.44,403Z" style="fill:#263238"></path><path d="M304.44,403c0,5.21-27.11,9.44-60.55,9.44s-60.56-4.23-60.56-9.44,27.11-9.45,60.56-9.45S304.44,397.82,304.44,403Z" style="fill:#fff;opacity:0.2"></path></g><g id="freepik--Table--inject-837"><g id="freepik--Group--inject-837"><polygon points="364.47 328.48 364.47 417.08 359.92 417.08 354.2 328.48 364.47 328.48" style="fill:#F1773D"></polygon><polygon points="364.47 328.48 364.47 417.08 359.92 417.08 354.2 328.48 364.47 328.48" style="fill:#fff;opacity:0.4"></polygon><polygon points="141 330.82 141 417.11 145.55 417.11 151.27 330.82 141 330.82" style="fill:#F1773D"></polygon><g style="opacity:0.6000000000000001"><polygon points="141 330.82 141 417.11 145.55 417.11 151.27 330.82 141 330.82" style="fill:#fff;opacity:0.4"></polygon></g><rect x="83.81" y="317.01" width="338.88" height="7.66" style="fill:#F1773D"></rect><rect x="83.81" y="317.01" width="338.88" height="7.66" style="fill:#fff;opacity:0.6000000000000001"></rect><polygon points="106.1 332.87 398.69 332.87 410.56 324.67 94.23 324.67 106.1 332.87" style="fill:#F1773D"></polygon><polygon points="106.1 332.87 398.69 332.87 410.56 324.67 94.23 324.67 106.1 332.87" style="fill:#fff;opacity:0.4"></polygon><polygon points="387.96 323.68 387.96 417.06 383.42 417.06 377.69 323.68 387.96 323.68" style="fill:#F1773D"></polygon><polygon points="387.96 323.68 387.96 417.06 383.42 417.06 377.69 323.68 387.96 323.68" style="fill:#fff;opacity:0.6000000000000001"></polygon><polygon points="115.22 322.51 115.22 417.08 119.77 417.08 125.49 322.51 115.22 322.51" style="fill:#F1773D"></polygon><polygon points="115.22 322.51 115.22 417.08 119.77 417.08 125.49 322.51 115.22 322.51" style="fill:#fff;opacity:0.6000000000000001"></polygon></g><path d="M118.47,302.14l.54,1a3.54,3.54,0,0,1,.47,1.76v5.57c0,3.4,3.72,6.18,8.29,6.18H129c3.34,0,6.19-1.47,7.51-3.59a2.71,2.71,0,0,0,1-.46l3.23-2.41a1.67,1.67,0,0,0,.74-1.34v-3c0-1-1.14-1.89-2.54-1.89h-1.7c-.09-.2.1-.52.35-.84l.06-.06a7.05,7.05,0,0,1,.88-.85l.07-.06s-.15-.7-1.85-.34c-.49.1-1,.22-1.38.34l-.19.06v0l-.13,0a6.93,6.93,0,0,0-4.41-.06,6.92,6.92,0,0,0-4.08,0c.1,0-.1,0,0,0a7,7,0,0,0-4.29.1h-.59c-.43-.12-.9-.24-1.4-.34C118.61,301.44,118.47,302.14,118.47,302.14Zm18.71,9.59c0-.07.07-4.47.08-6.34,0-.46.5-.83,1.13-.83h.7c.88,0,1.6.55,1.6,1.2v2.74c0,.9,0,.86-.91,1.51Z" style="fill:#F1773D"></path><path d="M120.88,284.24c.42,2.16,2.15,3.81,3.9,5.15s3.66,2.6,4.75,4.52,1,4.74-.89,5.91a6.59,6.59,0,0,0,.61-11.18c-1.58-1.11-3.65-1.52-5-3a5.76,5.76,0,0,1-1.17-4.87,26.38,26.38,0,0,1,1.46-4.11C122.26,277.3,120.42,281.82,120.88,284.24Z" style="fill:#F1773D"></path><path d="M126.41,278.44a15.52,15.52,0,0,0,2.05-5.32c.22-1.89-2-5-2-5a8,8,0,0,1,1.86,11.8,15.19,15.19,0,0,1-3.36,2.95C124.62,281.33,125.68,279.8,126.41,278.44Z" style="fill:#F1773D"></path><path d="M120.88,284.24c.42,2.16,2.15,3.81,3.9,5.15s3.66,2.6,4.75,4.52,1,4.74-.89,5.91a6.59,6.59,0,0,0,.61-11.18c-1.58-1.11-3.65-1.52-5-3a5.76,5.76,0,0,1-1.17-4.87,26.38,26.38,0,0,1,1.46-4.11C122.26,277.3,120.42,281.82,120.88,284.24Z" style="fill:#fff;opacity:0.6000000000000001"></path><path d="M126.41,278.44a15.52,15.52,0,0,0,2.05-5.32c.22-1.89-2-5-2-5a8,8,0,0,1,1.86,11.8,15.19,15.19,0,0,1-3.36,2.95C124.62,281.33,125.68,279.8,126.41,278.44Z" style="fill:#fff;opacity:0.6000000000000001"></path><path d="M125,268.65a10.08,10.08,0,0,1-1.32-3.42C123.58,264,125,262,125,262a5.15,5.15,0,0,0-1.19,7.58,9.71,9.71,0,0,0,2.15,1.9C126.19,270.5,125.5,269.52,125,268.65Z" style="fill:#F1773D"></path><path d="M125,268.65a10.08,10.08,0,0,1-1.32-3.42C123.58,264,125,262,125,262a5.15,5.15,0,0,0-1.19,7.58,9.71,9.71,0,0,0,2.15,1.9C126.19,270.5,125.5,269.52,125,268.65Z" style="fill:#fff;opacity:0.6000000000000001"></path><path d="M384.42,314.3H326.47s1.34-7,2.11-7.2,10.61-7.94,21.52-3.57c2.39.94,4.11,1.66,5.35,2.18,1.23-.52,3-1.24,5.34-2.18,10.92-4.37,20.77,3.41,21.53,3.57S384.42,314.3,384.42,314.3Z" style="fill:#F1773D"></path><path d="M384.42,314.3H326.47l0-.17c.22-1.09,1.38-6.88,2.08-7a.43.43,0,0,0,.13-.05c1.38-.68,10.89-7.73,21.39-3.53,2.39,1,4.11,1.66,5.34,2.19,1.24-.53,3-1.24,5.35-2.19,10.92-4.36,20.77,3.42,21.53,3.58S384.42,314.3,384.42,314.3Z" style="fill:#fff;opacity:0.6000000000000001"></path><path d="M391,314.3H332.39s1.35-7.12,2.13-7.29,10.74-6.95,21.78-2.54c2.42,1,5.41,4.69,5.41,4.69s3-3.73,5.41-4.69c11.05-4.41,21,2.38,21.8,2.54S391,314.3,391,314.3Z" style="fill:#F1773D"></path><path d="M391,314.3H332.39s1.35-7.12,2.13-7.29,10.74-6.95,21.78-2.54c2.42,1,5.41,4.69,5.41,4.69s3-3.73,5.41-4.69c11.05-4.41,21,2.38,21.8,2.54S391,314.3,391,314.3Z" style="fill:#fff;opacity:0.8"></path><polygon points="361.98 311.12 360.11 314.5 364.52 314.5 361.98 311.12" style="fill:#F1773D"></polygon><g style="opacity:0.30000000000000004"><polygon points="361.98 311.12 360.11 314.5 364.52 314.5 361.98 311.12"></polygon></g><path d="M334.44,307.05a13,13,0,0,0-.93,2.51c-.55,2.14-1.12,4.74-1.12,4.74h-5.92l0-.17c.22-1.09,1.38-6.88,2.08-7a.43.43,0,0,0,.13-.05Z" style="opacity:0.1"></path><path d="M393.28,316.47l-28.76.67-.06-.06a3.23,3.23,0,0,0-4.28,0l-.06.06-29.62-.39-7.48-.09.56-2.56h36.54a3.22,3.22,0,0,1,4.4,0l28,0Z" style="fill:#F1773D"></path><g style="opacity:0.30000000000000004"><polygon points="331.08 314.1 330.5 316.75 323.02 316.66 323.59 314.1 331.08 314.1"></polygon></g><path d="M364.52,309.54s4.51-5.18,10-4.22C374.5,305.32,370.67,304.84,364.52,309.54Z" style="fill:#F1773D"></path><path d="M364.52,309.54s4.51-5.18,10-4.22C374.5,305.32,370.67,304.84,364.52,309.54Z" style="fill:#fff;opacity:0.4"></path><path d="M353.78,311.92s-6-3.28-10.83-.47C343,311.45,346.37,309.66,353.78,311.92Z" style="fill:#F1773D"></path><path d="M353.78,311.92s-6-3.28-10.83-.47C343,311.45,346.37,309.66,353.78,311.92Z" style="fill:#fff;opacity:0.4"></path><path d="M359.49,310.15s-4.83-4.89-10.23-3.59C349.26,306.56,353.06,305.84,359.49,310.15Z" style="fill:#F1773D"></path><path d="M359.49,310.15s-4.83-4.89-10.23-3.59C349.26,306.56,353.06,305.84,359.49,310.15Z" style="fill:#fff;opacity:0.4"></path><path d="M371.71,309.46s6-3.31,10.83-.53C382.54,308.93,379.1,307.16,371.71,309.46Z" style="fill:#F1773D"></path><path d="M371.71,309.46s6-3.31,10.83-.53C382.54,308.93,379.1,307.16,371.71,309.46Z" style="fill:#fff;opacity:0.4"></path></g><g id="freepik--plant-2--inject-837"><path d="M423.63,405.61h.05a.36.36,0,0,0,.32-.39c0-.06,0-.76,0-2,0-1.79,0-5.54.3-10.56a1.28,1.28,0,0,1,0-.21c.32-5.61.87-11.11,1.63-16.37.71-4.9,1.63-9.65,2.71-14.12a115.2,115.2,0,0,1,3.4-11.36v0h0c.2-.55.4-1.1.61-1.65s.35-.89.53-1.34c.46-1.15.89-2.26,1.26-3.29.82-2.27,1.56-4.54,2.2-6.74.38-1.32.73-2.63,1-3.87a85.57,85.57,0,0,0,2.3-14.41c.13-1.91.19-3.82.17-5.68a54.15,54.15,0,0,0-.36-5.83c0-.14,0-.26,0-.39l0-.18a.35.35,0,0,0-.59-.27.39.39,0,0,0-.11.34h0l0,.19c0,.13,0,.26.05.4a55,55,0,0,1,.35,5.75c0,1.84,0,3.73-.17,5.62A85.16,85.16,0,0,1,437,333.55c-.3,1.24-.64,2.53-1,3.84-.63,2.19-1.37,4.44-2.19,6.69-.37,1-.79,2.13-1.25,3.28-.18.45-.36.9-.53,1.35s-.42,1.1-.62,1.65v0h0a114.16,114.16,0,0,0-3.42,11.44c-1.09,4.49-2,9.27-2.72,14.19-.77,5.28-1.32,10.8-1.64,16.41a2,2,0,0,0,0,.25c-.29,5-.31,8.79-.3,10.59,0,1.22,0,2,0,2A.37.37,0,0,0,423.63,405.61Z" style="fill:#F1773D"></path><path d="M439.37,307.34h0s0,0,0,0a11.06,11.06,0,0,0-1.89-1.59,10.81,10.81,0,0,0-2.42-1.17" style="fill:#F1773D"></path><path d="M439.36,307.69a.24.24,0,0,0,.14,0,.35.35,0,0,0,.2-.45.37.37,0,0,0-.07-.12l0,0h0a12,12,0,0,0-2-1.64,11.33,11.33,0,0,0-2.51-1.21.36.36,0,0,0-.23.68,10.13,10.13,0,0,1,2.35,1.13,10.39,10.39,0,0,1,1.82,1.53h0A.35.35,0,0,0,439.36,307.69Z" style="fill:#F1773D"></path><path d="M439.77,314a.33.33,0,0,0,.23-.07l2.48-1.87a.36.36,0,1,0-.43-.57l-2.48,1.87a.35.35,0,0,0-.07.5A.35.35,0,0,0,439.77,314Z" style="fill:#F1773D"></path><path d="M434.09,344.6a.38.38,0,0,0,.37-.35h0a9,9,0,0,0-.4-2,9.32,9.32,0,0,0-1.2-2.53,9.92,9.92,0,0,0-1.36-1.61.36.36,0,0,0-.51,0,.35.35,0,0,0,0,.5,9.3,9.3,0,0,1,1.26,1.49,8.72,8.72,0,0,1,1.11,2.35,8.15,8.15,0,0,1,.37,1.75.33.33,0,0,0,.32.36Z" style="fill:#F1773D"></path><path d="M431.68,350.87a.36.36,0,0,0,.33-.2,6,6,0,0,1,3.69-3,.36.36,0,0,0,.24-.44.35.35,0,0,0-.44-.24,6.68,6.68,0,0,0-4.12,3.4.36.36,0,0,0,.15.48Z" style="fill:#F1773D"></path><path d="M424.84,382.22c.85-.86,1.74-4.33,2.22-6.2.12-.44.22-.82.3-1.1" style="fill:#F1773D"></path><path d="M424.82,382.58a.35.35,0,0,0,.27-.11c.85-.85,1.64-3.73,2.32-6.36.11-.44.21-.82.29-1.09a.36.36,0,0,0-.25-.44.36.36,0,0,0-.44.25l-.29,1.11c-.44,1.7-1.35,5.24-2.14,6a.37.37,0,0,0,.24.61Z" style="fill:#F1773D"></path><path d="M434.3,367.61c.71,3.36-6.87,8.94-6.87,8.94s-9.21-2-9.92-5.35,2.11-8.48,6.75-9.47S433.58,364.26,434.3,367.61Z" style="fill:#F1773D"></path><path d="M445.64,328.71c-1.2,3.39-8.08,5.26-8.08,5.26s-4.16-5.79-3-9.18,5.22-6.87,8.27-5.79S446.84,325.33,445.64,328.71Z" style="fill:#F1773D"></path><path d="M427.1,338.24a8.66,8.66,0,0,0,2.71,1.87,3,3,0,0,0,3.11-.44c1-.95.89-2.57.44-3.86-.9-2.56-4.65-7.11-7.92-6.2C420.72,330.94,425.19,336.55,427.1,338.24Z" style="fill:#F1773D"></path><path d="M435.88,345.35c-.66.69-1.38,1.57-1.13,2.5a1.92,1.92,0,0,0,2,1.22,5.6,5.6,0,0,0,2.36-.9c1.71-1,5.23-3,3.31-5.42S437.29,343.9,435.88,345.35Z" style="fill:#F1773D"></path><path d="M435,303.09c-1,0-2-.44-3-.46s-2.17.67-2,1.66,1.22,1.32,2.13,1.46a18.19,18.19,0,0,0,4.72.1,1.41,1.41,0,0,0,1-.4c.46-.55-.11-1.41-.78-1.68a9.78,9.78,0,0,1-2-.68Z" style="fill:#F1773D"></path><path d="M444.1,310.8c1,.11,2-.22,3-.14s2.09.92,1.85,1.89-1.36,1.17-2.28,1.21a17.76,17.76,0,0,1-4.71-.44,1.43,1.43,0,0,1-.94-.5c-.39-.6.27-1.39,1-1.58a10.31,10.31,0,0,0,2.1-.45Z" style="fill:#F1773D"></path><path d="M439.59,308.68h0a.36.36,0,0,0,.35-.36c0-1.95.24-3.81.62-3.9a.36.36,0,0,0,.26-.43.36.36,0,0,0-.43-.26c-1.15.28-1.19,3.31-1.16,4.61A.35.35,0,0,0,439.59,308.68Z" style="fill:#F1773D"></path><path d="M439.13,304.09a8.74,8.74,0,0,1,2.78-3.42c1.27-.76,3.2-.65,4,.62s-.3,3.37-1.86,3.95a8.55,8.55,0,0,1-4.9-.17c0-.24,0-.49,0-.73Z" style="fill:#F1773D"></path><path d="M416,416.88h16.19l1.8-2.23a28.94,28.94,0,0,0,6.87-17.55l0-.53H407.31c0,6.55,2.53,13,7.37,18.74Z" style="fill:#F1773D"></path><path d="M416,416.88h16.19l1.8-2.23a28.94,28.94,0,0,0,6.87-17.55l0-.53H407.31c0,6.55,2.53,13,7.37,18.74Z" style="fill:#fff;opacity:0.4"></path></g><g id="freepik--plant-1--inject-837"><path d="M95.77,376.85l2-.83a2.58,2.58,0,0,0,2.58,1.1s.25.22.24.23a1.63,1.63,0,0,0-.57-1.79,2.88,2.88,0,0,0-1.9-.51,2.76,2.76,0,0,0-.54-2.43,2,2,0,0,0-.72,1.4,1.71,1.71,0,0,0,.46,1.38,5.11,5.11,0,0,0-2.13,1C95.39,376.59,95.51,376.7,95.77,376.85Z" style="fill:#F1773D"></path><path d="M95.77,376.85l2-.83a2.58,2.58,0,0,0,2.58,1.1s.25.22.24.23a1.63,1.63,0,0,0-.57-1.79,2.88,2.88,0,0,0-1.9-.51,2.76,2.76,0,0,0-.54-2.43,2,2,0,0,0-.72,1.4,1.71,1.71,0,0,0,.46,1.38,5.11,5.11,0,0,0-2.13,1C95.39,376.59,95.51,376.7,95.77,376.85Z" style="fill:#fff;opacity:0.1"></path><path d="M71.38,381.8a26.65,26.65,0,0,0-11.12-7.11c-.13-.48-.67-.8-.81-1.28a27.47,27.47,0,0,1,13.27,7C72.36,381.07,71.74,381.18,71.38,381.8Z" style="fill:#263238"></path><g style="opacity:0.30000000000000004"><path d="M71.38,381.8a26.65,26.65,0,0,0-11.12-7.11c-.13-.48-.67-.8-.81-1.28a27.47,27.47,0,0,1,13.27,7C72.36,381.07,71.74,381.18,71.38,381.8Z" style="fill:#fff"></path></g><path d="M75.37,347.51c-.52,1.3.27,3.17,1.91,3.13-.71-1.54-5.06-1.93-6.28-.57-.52.59.08,1.65.71,2.13a7.27,7.27,0,0,0,2.13.81c-2.38-.85-6,2-6,4.15a1.89,1.89,0,0,0-2.44.91c-.26,1,.38,2.13,2.12,1.9A3.72,3.72,0,0,0,66.19,362c-.48,1.51-.32,2.93,1.37,3.31a2.34,2.34,0,0,0,1.75-.4c-2,.7-3.6,2.23-3,3.73.31.82,2,.5,2,.5-3.3,2.7-1.23,2.95-.68,3.19-1.06,1-.23,2.61,1.33,2.73,1.89.15,1.36-.28,2.59-.16h0a1.43,1.43,0,0,0,1.73,1.9,7.8,7.8,0,0,0,4.36-3c-.32.71-.1,1.81.82,1.68,1.7.13,2.69-1.17,3.68-2.11.83,1.54,2.44,2.24,4.38,2.48a3.27,3.27,0,0,0,3.24-1.47,2.42,2.42,0,0,0-.58-3.2,5.56,5.56,0,0,0,2,.76.91.91,0,0,0,.8-1.52,4.18,4.18,0,0,1-.73-1,6.12,6.12,0,0,0,3,.05,1.84,1.84,0,0,0,1.11-2.95,4.81,4.81,0,0,0-3.79-1.72c2.46-.28,3.06-.26,5-1.71.58-.84.73-2.11-.14-2.7a3,3,0,0,0-3.18.06,5.14,5.14,0,0,0,1.54-4.29,1.82,1.82,0,0,0-3.17-1.06,3.35,3.35,0,0,0-1,3,9.5,9.5,0,0,0,.78-4.62,2.34,2.34,0,0,0-1.88-2.16c-2.21-.44-4.79-.1-5,1.62C85.11,348,77.66,346.25,75.37,347.51Z" style="fill:#F1773D"></path><path d="M75.37,347.51c-.52,1.3.27,3.17,1.91,3.13-.71-1.54-5.06-1.93-6.28-.57-.52.59.08,1.65.71,2.13a7.27,7.27,0,0,0,2.13.81c-2.38-.85-6,2-6,4.15a1.89,1.89,0,0,0-2.44.91c-.26,1,.38,2.13,2.12,1.9A3.72,3.72,0,0,0,66.19,362c-.48,1.51-.32,2.93,1.37,3.31a2.34,2.34,0,0,0,1.75-.4c-2,.7-3.6,2.23-3,3.73.31.82,2,.5,2,.5-3.3,2.7-1.23,2.95-.68,3.19-1.06,1-.23,2.61,1.33,2.73,1.89.15,1.36-.28,2.59-.16h0a1.43,1.43,0,0,0,1.73,1.9,7.8,7.8,0,0,0,4.36-3c-.32.71-.1,1.81.82,1.68,1.7.13,2.69-1.17,3.68-2.11.83,1.54,2.44,2.24,4.38,2.48a3.27,3.27,0,0,0,3.24-1.47,2.42,2.42,0,0,0-.58-3.2,5.56,5.56,0,0,0,2,.76.91.91,0,0,0,.8-1.52,4.18,4.18,0,0,1-.73-1,6.12,6.12,0,0,0,3,.05,1.84,1.84,0,0,0,1.11-2.95,4.81,4.81,0,0,0-3.79-1.72c2.46-.28,3.06-.26,5-1.71.58-.84.73-2.11-.14-2.7a3,3,0,0,0-3.18.06,5.14,5.14,0,0,0,1.54-4.29,1.82,1.82,0,0,0-3.17-1.06,3.35,3.35,0,0,0-1,3,9.5,9.5,0,0,0,.78-4.62,2.34,2.34,0,0,0-1.88-2.16c-2.21-.44-4.79-.1-5,1.62C85.11,348,77.66,346.25,75.37,347.51Z" style="opacity:0.2"></path><path d="M84.77,374.2a9.83,9.83,0,0,1-6.19,6.09,10.09,10.09,0,0,0-3,1.13h0a1.84,1.84,0,0,0,.6,3.17A13.49,13.49,0,0,1,80.79,387c1.64,1.44,2.65,4.09,1.89,6.14-1.3,1.07-3.73.59-4.9-.61-.41-2.19-2.72-3.38-4.75-4.28-2.41-1.06-5.17-2.66-4.56-5.68a4.65,4.65,0,0,1,3-3.14c9.53-2.87,10.51-7.47,10.51-7.47,1.09,0,1.31-.39,2.4-.39A2.71,2.71,0,0,1,84.77,374.2Z" style="fill:#263238"></path><path d="M84.77,374.2a9.83,9.83,0,0,1-6.19,6.09,10.09,10.09,0,0,0-3,1.13h0a1.84,1.84,0,0,0,.6,3.17A13.49,13.49,0,0,1,80.79,387c1.64,1.44,2.65,4.09,1.89,6.14-1.3,1.07-3.73.59-4.9-.61-.41-2.19-2.72-3.38-4.75-4.28-2.41-1.06-5.17-2.66-4.56-5.68a4.65,4.65,0,0,1,3-3.14c9.53-2.87,10.51-7.47,10.51-7.47,1.09,0,1.31-.39,2.4-.39A2.71,2.71,0,0,1,84.77,374.2Z" style="fill:#fff;opacity:0.30000000000000004"></path><path d="M59.92,398.13l12.6-4.79A22.86,22.86,0,0,1,88,393.09l14.67,5h0a63.87,63.87,0,0,1-42.79,0Z" style="fill:#263238"></path><path d="M106.22,412.69l0,.13a7.07,7.07,0,0,1-6.68,4.75H63.06a7.08,7.08,0,0,1-6.69-4.76l0-.12a15.72,15.72,0,0,1-.08-10.16L58,397.15h46.5l1.77,5.38A15.78,15.78,0,0,1,106.22,412.69Z" style="fill:#F1773D"></path><g style="opacity:0.4"><path d="M106.22,412.69l0,.13a7.07,7.07,0,0,1-6.68,4.75H63.06a7.08,7.08,0,0,1-6.69-4.76l0-.12a15.72,15.72,0,0,1-.08-10.16L58,397.15h46.5l1.77,5.38A15.78,15.78,0,0,1,106.22,412.69Z" style="fill:#fff"></path></g><path d="M80.47,389.94a19,19,0,0,1,8.9-6.58c.27-.1.68-.77.44-.93A27.58,27.58,0,0,0,81,386.05a6.08,6.08,0,0,0-2.46,2.76C79.16,389.66,79.41,390,80.47,389.94Z" style="fill:#263238"></path><path d="M80.47,389.94a19,19,0,0,1,8.9-6.58c.27-.1.68-.77.44-.93A27.58,27.58,0,0,0,81,386.05a6.08,6.08,0,0,0-2.46,2.76C79.16,389.66,79.41,390,80.47,389.94Z" style="fill:#fff;opacity:0.30000000000000004"></path><path d="M77.73,344.43a2.23,2.23,0,0,0,1.9,3.13c-.7-1.54-5-1.93-6.27-.57-.53.59.08,1.65.71,2.13a7.27,7.27,0,0,0,2.13.81c-2.39-.85-6,2-6,4.15a1.91,1.91,0,0,0-2.45.91c-.26,1,.39,2.13,2.12,1.9A3.83,3.83,0,0,0,68.54,359c-.47,1.51-.32,2.93,1.38,3.31a2.36,2.36,0,0,0,1.75-.4c-2,.7-3.6,2.23-3,3.73.3.82,2,.5,2,.5-3.29,2.7-1.23,2.95-.67,3.19-1.07,1-.23,2.61,1.33,2.73,1.88.15,1.36-.28,2.59-.16h0a1.42,1.42,0,0,0,1.72,1.9,7.86,7.86,0,0,0,4.37-3c-.32.71-.11,1.81.81,1.68,1.7.13,2.69-1.17,3.69-2.11.83,1.55,2.44,2.24,4.37,2.48a3.29,3.29,0,0,0,3.25-1.47,2.43,2.43,0,0,0-.58-3.2,5.38,5.38,0,0,0,2,.76.91.91,0,0,0,.8-1.52,4,4,0,0,1-.74-1,6.16,6.16,0,0,0,3,.05,1.84,1.84,0,0,0,1.1-2.95A4.81,4.81,0,0,0,94,361.7c2.47-.28,3.06-.26,5-1.71.58-.84.73-2.11-.14-2.7a3,3,0,0,0-3.17.06,5.2,5.2,0,0,0,1.54-4.29A1.83,1.83,0,0,0,94.08,352a3.37,3.37,0,0,0-1,3,9.62,9.62,0,0,0,.78-4.62A2.35,2.35,0,0,0,92,348.22c-2.21-.44-4.8-.1-5,1.62C87.46,344.89,80,343.17,77.73,344.43Z" style="fill:#F1773D"></path><path d="M88.58,377.55a3.43,3.43,0,0,0-3.06-.14,2.75,2.75,0,0,0,1.76,2.17,2,2,0,0,0-2,1,1.8,1.8,0,0,0,.35,2.06l.22,0a1.52,1.52,0,0,0,1.83,2.32,2.54,2.54,0,0,0,1.81,1,2.43,2.43,0,0,0,1.86-.84c-.12.56.56,1.29,1.09,1.49a1.91,1.91,0,0,0,1.64-.23,4.29,4.29,0,0,0,1.18-1.22,4.89,4.89,0,0,0-.62-5.85C93.23,377.75,90.68,377.34,88.58,377.55Z" style="fill:#F1773D"></path><path d="M88.58,377.55a3.43,3.43,0,0,0-3.06-.14,2.75,2.75,0,0,0,1.76,2.17,2,2,0,0,0-2,1,1.8,1.8,0,0,0,.35,2.06l.22,0a1.52,1.52,0,0,0,1.83,2.32,2.54,2.54,0,0,0,1.81,1,2.43,2.43,0,0,0,1.86-.84c-.12.56.56,1.29,1.09,1.49a1.91,1.91,0,0,0,1.64-.23,4.29,4.29,0,0,0,1.18-1.22,4.89,4.89,0,0,0-.62-5.85C93.23,377.75,90.68,377.34,88.58,377.55Z" style="opacity:0.2"></path><path d="M92,375.28a2,2,0,0,1,2-2.74c.91.27,2.36,1.12,2.44,2.07a2.45,2.45,0,0,1-1.35,2.33c.91-.83,3.51-.2,3.88,1s-1.08,2.5-2.16,1.92c1.81-.05,3.89,2.47,3.7,4.27a3,3,0,0,1-4.32-.05c.88.59,1.71,2.19,1.16,3.1a2.15,2.15,0,0,1-2.79.7c-1.41-.81-2.17-2.48-1.1-3.71a3.7,3.7,0,0,0-3.63,1.91c-.64-1.12.15-2.84,1.28-3.46-1.62-.85-3.14-1.67-4.92-1.25.39-1.2,1.31-2.7,2.54-3a3.72,3.72,0,0,1,3.44,1.11,4.74,4.74,0,0,1-4-4.3C89.1,374.27,92.24,375.46,92,375.28Z" style="fill:#F1773D"></path><path d="M54.7,367.64a1.16,1.16,0,0,0-1.17.16.93.93,0,0,0,0,1.08,2.73,2.73,0,0,0,.84.78,1.24,1.24,0,0,0-1.11,1.65,2,2,0,0,0,1.86,1.23,1.12,1.12,0,0,0,.5,1.65,2.37,2.37,0,0,0,1.94-.16,13.55,13.55,0,0,1,1.81-.85,3,3,0,0,0,.35,1,1,1,0,0,0,.87.47.6.6,0,0,0,.54-.73,4.19,4.19,0,0,0,1.65,1,.78.78,0,0,0,.54,0c.3-.13.33-.56.19-.85s-.39-.52-.53-.81a.65.65,0,0,1,.17-.86A7.18,7.18,0,0,0,66.23,370c.16-.23.31-.54.15-.77a.68.68,0,0,0-.62-.2,6.48,6.48,0,0,0-2.41.56,4,4,0,0,1,.28-1.59,1.63,1.63,0,0,0-.21-1.55,1.3,1.3,0,0,0-1.65,0,3.74,3.74,0,0,0-1,1.49,2.68,2.68,0,0,0-1.3-1.41,1.73,1.73,0,0,0-1.84.22,1.29,1.29,0,0,0-.14,1.75c-.66.18-.86.33-1.39-.06A4.17,4.17,0,0,0,54.7,367.64Z" style="fill:#F1773D"></path><path d="M54.7,367.64a1.16,1.16,0,0,0-1.17.16.93.93,0,0,0,0,1.08,2.73,2.73,0,0,0,.84.78,1.24,1.24,0,0,0-1.11,1.65,2,2,0,0,0,1.86,1.23,1.12,1.12,0,0,0,.5,1.65,2.37,2.37,0,0,0,1.94-.16,13.55,13.55,0,0,1,1.81-.85,3,3,0,0,0,.35,1,1,1,0,0,0,.87.47.6.6,0,0,0,.54-.73,4.19,4.19,0,0,0,1.65,1,.78.78,0,0,0,.54,0c.3-.13.33-.56.19-.85s-.39-.52-.53-.81a.65.65,0,0,1,.17-.86A7.18,7.18,0,0,0,66.23,370c.16-.23.31-.54.15-.77a.68.68,0,0,0-.62-.2,6.48,6.48,0,0,0-2.41.56,4,4,0,0,1,.28-1.59,1.63,1.63,0,0,0-.21-1.55,1.3,1.3,0,0,0-1.65,0,3.74,3.74,0,0,0-1,1.49,2.68,2.68,0,0,0-1.3-1.41,1.73,1.73,0,0,0-1.84.22,1.29,1.29,0,0,0-.14,1.75c-.66.18-.86.33-1.39-.06A4.17,4.17,0,0,0,54.7,367.64Z" style="opacity:0.2"></path><path d="M61.77,373.73c-.46-2-1-2.27.65-3.48a4.15,4.15,0,0,0,3.66-1.3,4.54,4.54,0,0,0,1-3.93,9.72,9.72,0,0,0-5.64,5.08,3.81,3.81,0,0,0,.07-3.62A2.67,2.67,0,0,0,59,364.91l0,.21a2.88,2.88,0,0,0,.86,2.37,3.09,3.09,0,0,1,.54,3.14c-.58,1.46.25.72-1.08,1.55a2.44,2.44,0,0,0-.93-3.62,4.15,4.15,0,0,0-1.65,4.77c-.61-1.33-2-2.36-3-2.14-.66.14-3,1.58-2.8,3.52,1.42-.94,1.84-.8,3.41-.17a5.37,5.37,0,0,1,3.18,3.74C59.87,378.3,62.32,376.1,61.77,373.73Z" style="fill:#F1773D"></path><path d="M56.29,366.17a3.5,3.5,0,0,0,4.79,3.52c-.36-.61-.73-1.17-1.09-1.73a4,4,0,0,0-3.67-1.79Z" style="fill:#F1773D"></path><path d="M56.29,366.17a3.5,3.5,0,0,0,4.79,3.52c-.36-.61-.73-1.17-1.09-1.73a4,4,0,0,0-3.67-1.79Z" style="fill:#fff;opacity:0.1"></path><path d="M61.12,371.48a3.22,3.22,0,0,0,2.79,2.77,2.88,2.88,0,0,0-1.73-3.41C61.78,370.71,61.08,371.06,61.12,371.48Z" style="fill:#F1773D"></path><path d="M61.74,375.49a2.16,2.16,0,0,0,.37,4.1C63.32,378.47,62.93,376.62,61.74,375.49Z" style="fill:#F1773D"></path><path d="M54.52,378.63a2.85,2.85,0,0,1,2.18-3.09,1.86,1.86,0,0,1,.13,2.44A1.79,1.79,0,0,1,54.52,378.63Z" style="fill:#F1773D"></path><path d="M54.52,378.63a2.85,2.85,0,0,1,2.18-3.09,1.86,1.86,0,0,1,.13,2.44A1.79,1.79,0,0,1,54.52,378.63Z" style="fill:#fff;opacity:0.1"></path><path d="M86.45,351.49a4.07,4.07,0,0,0-1-1.56,1.43,1.43,0,0,0-1.71-.19,2,2,0,0,0-.59,1.53,3.33,3.33,0,0,0,.08,1.22,1.29,1.29,0,0,0,.81.87,4,4,0,0,0-1.69-.23,1.13,1.13,0,0,0-1.06.94,1.11,1.11,0,0,0,.7,1,3.15,3.15,0,0,0,1.26.21A2.17,2.17,0,0,0,82,357a.8.8,0,0,0,.17.74.86.86,0,0,0,.72.08,5.4,5.4,0,0,0,2.18-1,2.48,2.48,0,0,0-.11,1.17,1,1,0,0,0,.89.78,1,1,0,0,0,.82-.69,2.92,2.92,0,0,0,.07-1.14c.34,0,.43.39.58.7a2.41,2.41,0,0,0,2.29,1.33,2.13,2.13,0,0,0,1.91-1.76,1.94,1.94,0,0,0-1.45-2.11,3.44,3.44,0,0,1,1.59-.13,1.64,1.64,0,0,0,1.58-.39,1.14,1.14,0,0,0-.13-1.46,1.9,1.9,0,0,0-1.46-.52,5.27,5.27,0,0,0-1.56.35c.52,0,.58-.88.37-1.36a1.19,1.19,0,0,0-1.32-.58C88.62,351.08,86.7,351,86.45,351.49Z" style="fill:#fff;opacity:0.1"></path><path d="M79.18,360.67a4.06,4.06,0,0,0-2.08.3,1.41,1.41,0,0,0-.71,1.78,1.39,1.39,0,0,0,1.35.6,4.1,4.1,0,0,0,1.46-.54,1.46,1.46,0,0,0,.23,1.74,1,1,0,0,0,1.51-.42,5.31,5.31,0,0,1,.71,1.5,2.33,2.33,0,0,0,1,1.29,1,1,0,0,0,1.38-.46,1.15,1.15,0,0,1,.12-.4c.15-.21.5-.16.72,0a3.67,3.67,0,0,0,.62.5,1,1,0,0,0,1.25-.77,2.93,2.93,0,0,0-.23-1.64,3.76,3.76,0,0,0-.69-1.35,1.25,1.25,0,0,0-1.38-.37.76.76,0,0,0-.22,1.24c-.12-.51-.69-.76-1.2-.91a4.41,4.41,0,0,0-1.58-.1,1.55,1.55,0,0,0-.28-1.88A1.65,1.65,0,0,0,79.18,360.67Z" style="fill:#fff;opacity:0.1"></path><path d="M89.73,361.72a3.56,3.56,0,0,0-1.42,3.37v0a1.35,1.35,0,0,0,.66,1.12,1,1,0,0,0,1.21-.64,3,3,0,0,0,.07-1.49,1.37,1.37,0,0,0,.63.75,1,1,0,0,0,1.19,0,.61.61,0,0,0-.3-1,4,4,0,0,0,2.72-.09c.27-.11.57-.28.63-.57s-.26-.68-.6-.84a2.32,2.32,0,0,1-1-.57c.43-.15.58-.61.75-1a1,1,0,0,0-.38-1.19,1.56,1.56,0,0,0-1.42.26A23.63,23.63,0,0,0,89.73,361.72Z" style="fill:#fff;opacity:0.1"></path><path d="M80.09,352.33a6.22,6.22,0,0,0-4.31.59,2,2,0,0,0-.82.7.85.85,0,0,0,.07,1,1.34,1.34,0,0,0-1.81.37,1.11,1.11,0,0,0,.77,1.47,1.15,1.15,0,0,0-.77,1.6,2,2,0,0,0,1.67,1.15A5.82,5.82,0,0,0,77,359a1.57,1.57,0,0,0-.8-2.15c.35.16.61-.14.82-.46a.84.84,0,0,0-.15-1.05,2.83,2.83,0,0,0,3.46-1.4C80.59,353.43,80.63,352.46,80.09,352.33Z" style="fill:#fff;opacity:0.1"></path></g><g id="freepik--Character--inject-837"><path d="M325.85,280.47s11.3,9,12,8.84c4-.82,4.74-1.17,9.09-2a3.67,3.67,0,0,0,2.21-5.81l-.51-.68a3.66,3.66,0,0,0-3.57-1.42l-6.37,1.11-9.23-5.93Z" style="fill:#ff8b7b"></path><path d="M272.89,211.34c3-1.37,7.86,4.16,9.35,7.12,3.92,7.81,18.7,32.43,18.7,32.43,1.73,1,24.17,18.78,29.58,21.57,2.81,1.45-2.74,11.38-5.45,9.75-5.21-3.14-10.5-6.14-15.82-9.09-1.75-1-3.5-1.95-5.26-2.89l-5.34-2.89a46.71,46.71,0,0,1-10.89-8.19,47.53,47.53,0,0,1-8.25-11l-.81-1.51-.69-1.33-1.39-2.67q-1.38-2.67-2.82-5.32c-2.81-5.26-5.68-10.49-8.69-15.66a5.59,5.59,0,0,1,2.51-7.91Z" style="fill:#263238"></path><path d="M320.13,360.81C306,371.13,266,352.55,246.72,342.7c-19.32,9.85-59.32,28.43-73.42,18.11-23.21-17,8.63-42.84,16.89-48.08s17.47-8.75,26.62-12.21,20,2.31,29.91,2.52c9.88-.22,20.67-6,29.9-2.52s18.37,7,26.62,12.21S343.35,343.8,320.13,360.81Z" style="fill:#F1773D"></path><path d="M251,323.61c-14.17.55-29.82,4.47-43.74,7.12-2,.39-9.26,4.46-9.62,6.49C252.62,323.61,197.68,337.22,251,323.61Z" style="opacity:0.2"></path><path d="M248.52,324.07c14.16.56,29.82,4.48,43.74,7.13,2,.38,9.26,4.45,9.62,6.48C246.94,324.07,301.88,337.68,248.52,324.07Z" style="opacity:0.2"></path><path d="M256.74,329.24l-1.92,4.15h0l-1.8,3.88h0l-.31.67h0l-2.19-1.45-.17-.12-1.35-.9-1.75-1.16-.66-.43v0l-4.75-3.16-1.95-4.22-2.62,1.11-.08,0-1.14-.76,7.14-4.93,1.84,1,1.44.78.36.19,3.48,1.87.72.4,1.84,1Z" style="fill:#ff8b7b"></path><polygon points="252.7 337.96 247.01 334.8 251.06 326.07 256.74 329.23 252.7 337.96" style="opacity:0.2"></polygon><path d="M251.81,346.93a68.34,68.34,0,0,0-6.78-3.68l9.84-20.48,7,2.45Z" style="fill:#F1773D"></path><path d="M251.81,346.93a68.34,68.34,0,0,0-6.78-3.68l9.84-20.48,7,2.45Z" style="fill:#fff;opacity:0.2"></path><path d="M246.92,323.5l-.24.1-.23.1-6.58,2.79-2.62,1.11-.08,0a3.54,3.54,0,0,1-.85.22,3.71,3.71,0,0,1-.47,0,1.45,1.45,0,0,1-.36,0h-.07a3.42,3.42,0,0,1-.44,0h-.18l-.7-.1-.95-.13c-6.26-.81-7.92-.39-15,.93-1.68.32-2.35-3.72,1.28-5.26,6-2.55,6.15-2.28,11.28-4.45,4.38-1.85,9.32-4.19,12.78-5.73a1.46,1.46,0,0,1,2,1l1.86,8.49A.8.8,0,0,1,246.92,323.5Z" style="fill:#263238"></path><polygon points="253.61 322.08 260.75 327.01 244.07 338.11 240.03 329.39 253.61 322.08" style="fill:#ff8b7b"></polygon><polygon points="244.08 338.11 249.76 334.95 245.72 326.23 240.04 329.38 244.08 338.11" style="opacity:0.2"></polygon><path d="M250.22,340.9s-2.06,1.49-4.16,2.93l-2,1.36-6.51-14.07-2-4.22-.7-1.53,5.85-2,1.16-.41.51,1.09.13.29,1.36,2.94,0,.05,1.25,2.68,1.14,2.48,1.48,3.19.15.32.8,1.73h0Z" style="fill:#F1773D"></path><path d="M250.22,340.9s-2.06,1.49-4.16,2.93l-2,1.36-6.51-14.07-2-4.22-.7-1.53,5.85-2,1.16-.41.51,1.09.13.29,1.36,2.94,0,.05,1.25,2.68,1.14,2.48,1.48,3.19.15.32.8,1.73h0Z" style="fill:#fff;opacity:0.2"></path><path d="M259.53,327.74l-9.67-4.09a.79.79,0,0,1-.47-.91l1.86-8.5a1.45,1.45,0,0,1,2-1c3.46,1.54,8.41,3.87,12.79,5.73,5.12,2.17,5.27,1.9,11.28,4.45,3.63,1.53,2.95,5.58,1.28,5.26-7.62-1.44-8.94-1.8-16.61-.7A4.52,4.52,0,0,1,259.53,327.74Z" style="fill:#263238"></path><path d="M229.45,209.25c12.06-1.48,29.17-1.35,40.53.63a12.88,12.88,0,0,1,10.58,11.68c1.42,17.32-2.42,47.6-5.72,78.07-26.72,9-53.83-.12-53.83-.12-.32-3.22.44-10.28,1.53-17.82a119,119,0,0,0-1.38-42.15c-1.06-4.94-2.1-10.15-2.91-15.64A12.9,12.9,0,0,1,229.45,209.25Z" style="fill:#263238"></path><path d="M219.64,232.1s2.88,14,3.28,17.9,5.39-24.32,5.39-24.32Z" style="opacity:0.2"></path><path d="M172.13,282s-11.54,9.2-12.31,9c-4.07-.84-4.84-1.2-9.28-2.09a3.76,3.76,0,0,1-2.27-5.94l.53-.7a3.76,3.76,0,0,1,3.65-1.44L159,282l9.42-6.06Z" style="fill:#ff8b7b"></path><path d="M226.25,211.34c-3.08-1.4-8,4.26-9.55,7.28-4,8-19.11,33.15-19.11,33.15-1.77,1-24.7,19.19-30.23,22-2.87,1.48,2.8,11.63,5.57,10,5.32-3.21,10.73-6.28,16.16-9.29,1.79-1,3.58-2,5.38-3l5.46-2.95a47.76,47.76,0,0,0,11.13-8.38,48.61,48.61,0,0,0,8.43-11.26l.83-1.54L221,246l1.42-2.73q1.41-2.73,2.88-5.43c2.87-5.38,5.81-10.72,8.89-16a5.72,5.72,0,0,0-2.57-8.08Z" style="fill:#263238"></path><path d="M240,185.39c1.66,7.15,3.45,20.27-1.83,25.16,4.26,3.8,10.42,7.65,15.26,6.94,6.09-.9,9.29-5.25,8.46-7.38-8.62-1.75-8.34-7.7-7-13.3Z" style="fill:#ff8b7b"></path><path d="M246,190.05l8.83,6.75a21.44,21.44,0,0,0-.65,4c-3.28-.38-7.44-2.88-8.8-6.21C244.56,192.49,245.19,190.31,246,190.05Z" style="opacity:0.2"></path><path d="M257.59,164.06c4.15-4.8,10.82-11.25,3.35-17a10.39,10.39,0,0,1-9.28-2.17c-3.78-3.13-9.12-3-12.13-3.13a6.78,6.78,0,0,1,1.27,3.94c-.67,8-7.25,15.72-9.75,23.2a10,10,0,0,0,0,6.87,12.58,12.58,0,0,0,6.08,6,178.32,178.32,0,0,1,17-10.26c.37,0,.46-.6.51-.95A13.07,13.07,0,0,1,257.59,164.06Z" style="fill:#263238"></path><path d="M237.11,174.62c1,9.61,1.11,15.29,6.2,20,7.65,7.12,19.36,2.19,21.24-7.54,1.69-8.75-.25-23-9.86-26.43A13.18,13.18,0,0,0,237.11,174.62Z" style="fill:#ff8b7b"></path><path d="M258.64,163c-1.68-.65-1.47-.61-3.1.14-4.06-2-9.09-.57-10.73-.09a25.51,25.51,0,0,1,.88,5,4.24,4.24,0,0,1-.55,2.92c-.61.83-1.69,1.15-2.51,1.78a5.19,5.19,0,0,0-1.69,4.5c.14,1.66-1.82,2.62-3.75,2.85a11.28,11.28,0,0,1-1.87-6c-2.26-8,7.3-14.6,7.12-15a26.54,26.54,0,0,1,14.9.73A8.31,8.31,0,0,1,258.64,163Z" style="fill:#263238"></path><path d="M233.32,182.85a9.2,9.2,0,0,0,4.63,5.27c2.91,1.4,4.92-1.06,4.59-4.1-.3-2.73-2.18-6.75-5.32-6.88S232.38,180,233.32,182.85Z" style="fill:#ff8b7b"></path><path d="M257.55,177s2.38,4.26,4.63,6.16c-1.2,1.47-3.63,1.2-3.63,1.2Z" style="fill:#ff5652"></path><path d="M256.25,188.49a6.44,6.44,0,0,1-4.55-2.38.23.23,0,0,1,.05-.32.23.23,0,0,1,.32.05,6.23,6.23,0,0,0,5.18,2.21.23.23,0,0,1,.24.22.22.22,0,0,1-.22.24A6.84,6.84,0,0,1,256.25,188.49Z" style="fill:#263238"></path><path d="M254.55,178.46c-2.88.88-4.34-.2-4.44-.26a.23.23,0,1,1,.25-.39s1.83,1.3,5-.13a.23.23,0,0,1,.3.11.22.22,0,0,1-.11.31A7.13,7.13,0,0,1,254.55,178.46Z" style="fill:#263238"></path><path d="M264.05,177.34c-2.73,1.28-3.87.42-4,.37a.23.23,0,0,1-.12-.3.23.23,0,0,1,.31-.12s1.54,1,4.43-.84a.23.23,0,0,1,.25.39A6.74,6.74,0,0,1,264.05,177.34Z" style="fill:#263238"></path><path d="M250.26,173.35a.49.49,0,0,1-.22-.08.45.45,0,0,1-.11-.64,4.6,4.6,0,0,1,3.67-2.07.47.47,0,0,1,.45.47.46.46,0,0,1-.48.45h0a3.64,3.64,0,0,0-2.88,1.67A.49.49,0,0,1,250.26,173.35Z" style="fill:#263238"></path><path d="M264.41,173.07a.46.46,0,0,1-.36-.24,3.61,3.61,0,0,0-2.69-2,.47.47,0,0,1-.42-.5.44.44,0,0,1,.49-.42,4.55,4.55,0,0,1,3.43,2.45.45.45,0,0,1-.19.62A.48.48,0,0,1,264.41,173.07Z" style="fill:#263238"></path><path d="M252.5,221.67l-6-6.19c1.69-.26,3.22-1,4.91-1.26C252.88,216.36,252.93,219.11,252.5,221.67Z" style="fill:#F1773D"></path><path d="M252.5,221.67l-6-6.19c1.69-.26,3.22-1,4.91-1.26C252.88,216.36,252.93,219.11,252.5,221.67Z" style="opacity:0.2"></path><path d="M251.78,214.63c-3.36,2.12-2.86,2.45-6.34,6.74-3.7-3.46-10.07-7.78-12.71-12.1a11,11,0,0,1,5.2-6.07A52.4,52.4,0,0,1,251.78,214.63Z" style="fill:#F1773D"></path><g style="opacity:0.2"><path d="M251.78,214.63c-3.36,2.12-2.86,2.45-6.34,6.74-3.7-3.46-10.07-7.78-12.71-12.1a11,11,0,0,1,5.2-6.07A52.4,52.4,0,0,1,251.78,214.63Z" style="fill:#fff"></path></g><path d="M253.91,213.89a12.2,12.2,0,0,0-1.37,7.54c1.75-2.3,3.36-4.57,5.11-6.87A7.43,7.43,0,0,0,253.91,213.89Z" style="fill:#F1773D"></path><path d="M253.91,213.89a12.2,12.2,0,0,0-1.37,7.54c1.75-2.3,3.36-4.57,5.11-6.87A7.43,7.43,0,0,0,253.91,213.89Z" style="opacity:0.2"></path><path d="M260,220.78a69.77,69.77,0,0,1-6.27-6.7,13.1,13.1,0,0,0,1.52-9,5.91,5.91,0,0,1,6.75,2.38C264.1,210.76,261.32,217.14,260,220.78Z" style="fill:#F1773D"></path><path d="M260,220.78a69.77,69.77,0,0,1-6.27-6.7,13.1,13.1,0,0,0,1.52-9,5.91,5.91,0,0,1,6.75,2.38C264.1,210.76,261.32,217.14,260,220.78Z" style="fill:#fff;opacity:0.2"></path><path d="M246.08,360.33a21,21,0,0,1-8.31-1.69.5.5,0,0,1-.27-.66.51.51,0,0,1,.66-.26,20.27,20.27,0,0,0,16.75-.41.5.5,0,0,1,.44.9A21.15,21.15,0,0,1,246.08,360.33Z" style="fill:#F1773D"></path><path d="M244.71,367.55a52.44,52.44,0,0,1-18.64-3.39.5.5,0,1,1,.36-.94,51.82,51.82,0,0,0,36.87-.12.5.5,0,1,1,.36.94A52.37,52.37,0,0,1,244.71,367.55Z" style="fill:#F1773D"></path></g></svg>
