<svg width="200" height="174" viewBox="0 0 200 174" fill="none" xmlns="http://www.w3.org/2000/svg">
<mask id="path-1-inside-1_102_3292" fill="white">
<path fill-rule="evenodd" clip-rule="evenodd" d="M148 50C148 22.3858 125.614 0 98 0C70.3858 0 48 22.3858 48 50L148 50Z"/>
</mask>
<path d="M148 50V62H160V50H148ZM48 50H36V62H48V50ZM98 12C118.987 12 136 29.0132 136 50H160C160 15.7583 132.242 -12 98 -12L98 12ZM60 50C60 29.0132 77.0132 12 98 12L98 -12C63.7583 -12 36 15.7583 36 50L60 50ZM48 62L148 62V38L48 38V62Z" fill="white" mask="url(#path-1-inside-1_102_3292)"/>
<path fill-rule="evenodd" clip-rule="evenodd" d="M0 78C0 55.9086 17.9086 38 40 38H160C182.091 38 200 55.9086 200 78V105H176.996C176.729 87.2813 162.282 73 144.5 73C126.718 73 112.271 87.2813 112.004 105H87.9962C87.729 87.2813 73.2823 73 55.5 73C37.7177 73 23.271 87.2813 23.0038 105H0V78Z" fill="white"/>
<circle cx="56" cy="105" r="18" fill="white"/>
<circle cx="145" cy="105" r="18" fill="white"/>
<path d="M57 141.351C79.3196 179.48 124.733 177.043 145 141" stroke="white" stroke-width="10" stroke-linecap="square"/>
<path d="M88.7344 65.3203L87.8262 60.457H89.0273C89.2031 57.6055 90.6289 56.1797 93.3047 56.1797C94.9062 56.1797 96.0684 56.6387 96.791 57.5566C97.5137 58.4746 97.875 59.959 97.875 62.0098H94.7988C94.7988 60.877 94.6279 60.0615 94.2861 59.5635C93.9541 59.0654 93.4121 58.8164 92.6602 58.8164C91.3418 58.8164 90.3555 59.3828 89.7012 60.5156C89.0566 61.6387 88.7344 63.2402 88.7344 65.3203ZM82.1719 72V69.2754H92.543V72H82.1719ZM85.6289 72V56.4727H88.1484L88.7344 60.9258V72H85.6289ZM82.7578 59.1973V56.4727H87.9434L88.2363 59.1973H82.7578Z" fill="#F1773D"/>
<path d="M99.2617 72V57.3516H102.367V72H99.2617ZM93.3438 72V69.2754H99.5547V72H93.3438ZM102.074 72V69.2754H107.143V72H102.074ZM94.2227 59.1973V56.4727H102.367V59.1973H94.2227ZM100.712 54.0117C100.116 54.0117 99.6035 53.8018 99.1738 53.3818C98.7539 52.9521 98.5439 52.4395 98.5439 51.8438C98.5439 51.2383 98.7539 50.7256 99.1738 50.3057C99.6035 49.8857 100.116 49.6758 100.712 49.6758C101.317 49.6758 101.83 49.8857 102.25 50.3057C102.67 50.7256 102.88 51.2383 102.88 51.8438C102.88 52.4395 102.67 52.9521 102.25 53.3818C101.83 53.8018 101.317 54.0117 100.712 54.0117Z" fill="#F1773D"/>
<path d="M104.666 79.002L104.52 76.1602L109.5 76.0137C111.072 75.9648 112.215 75.5303 112.928 74.71C113.641 73.8896 114.002 72.6836 114.012 71.0918V59.7539L114.305 56.4727H117.117V70.623C117.117 73.3867 116.487 75.4277 115.228 76.7461C113.968 78.0645 111.961 78.7676 109.207 78.8555L104.666 79.002ZM109.603 72.293C107.571 72.293 106.028 71.624 104.974 70.2861C103.929 68.9482 103.406 66.9805 103.406 64.3828C103.406 61.6875 103.929 59.6465 104.974 58.2598C106.028 56.873 107.571 56.1797 109.603 56.1797C110.813 56.1797 111.795 56.4531 112.547 57C113.299 57.5469 113.738 58.3086 113.865 59.2852H115.066L114.012 63.709C114.012 62.1074 113.694 60.8916 113.06 60.0615C112.435 59.2314 111.512 58.8164 110.291 58.8164C109.041 58.8164 108.094 59.2852 107.449 60.2227C106.805 61.1602 106.482 62.5469 106.482 64.3828C106.482 66.1211 106.805 67.4346 107.449 68.3232C108.094 69.2119 109.041 69.6562 110.291 69.6562C111.512 69.6562 112.435 69.2412 113.06 68.4111C113.694 67.5811 114.012 66.3652 114.012 64.7637L115.066 69.1875H113.719C113.621 70.1641 113.206 70.9258 112.474 71.4727C111.751 72.0195 110.794 72.293 109.603 72.293Z" fill="#F1773D"/>
</svg>
